Coordinates
version=1
nRows=8
nColumns=36
inDegrees=yes

Units are S.I. units (second, meters, Newtons, ...)
If the header above contains a line with 'inDegrees', this indicates whether rotational values are in degrees (yes) or radians (no).

endheader
time	pelvis_tilt	pelvis_list	pelvis_rotation	pelvis_tx	pelvis_ty	pelvis_tz	hip_flexion_r	hip_adduction_r	hip_rotation_r	knee_angle_r	knee_angle_r_beta	ankle_angle_r	subtalar_angle_r	mtp_angle_r	hip_flexion_l	hip_adduction_l	hip_rotation_l	knee_angle_l	knee_angle_l_beta	ankle_angle_l	subtalar_angle_l	mtp_angle_l	lumbar_extension	lumbar_bending	lumbar_rotation	arm_flex_r	arm_add_r	arm_rot_r	elbow_flex_r	pro_sup_r	arm_flex_l	arm_add_l	arm_rot_l	elbow_flex_l	pro_sup_l
      0.00000000	     -0.68322560	     -2.43236549	     17.83217244	     -0.39253053	      1.16617415	      0.05246168	     -0.58605863	      0.99489030	     -0.15951603	      1.26325603	      0.02204798	      8.18366865	     -6.55511511	     -5.29021221	     -0.79623849	      1.59558695	     -0.50892258	      0.39976998	      0.00697730	      5.77755680	     -5.34129274	     -5.29021221	      0.96705127	      0.07781302	     -2.65142060	     -1.95587450	     -5.93698223	      9.08892860	     29.31290958	     79.93182871	      1.05655116	     -9.79867692	     26.43070233	     26.94097523	     68.57619886
      0.01666670	     -2.70751105	     -2.59709778	     18.07151535	     -0.39126074	      1.16523434	      0.05139597	      1.38753495	      0.39310618	     -0.40991263	      0.95687254	      0.01670058	      9.09549353	     -3.62816082	     -6.17573736	      1.47816629	      2.68416368	     -0.92440059	      0.36694622	      0.00640442	      6.64954773	     -3.77766684	     -6.17573736	      3.78169841	     -0.44825696	     -2.55802389	     -2.65678757	     -6.16769977	      8.77655811	     30.54625891	     81.20522508	      0.54097267	     -9.94854770	     26.76875642	     26.85303556	     71.74249242
      0.03333330	     -3.96852542	     -2.16566569	     17.75670042	     -0.39140777	      1.16306893	      0.05170261	      2.35967537	     -0.59696413	     -0.96092588	      0.63848335	      0.01114364	      9.86926170	     -2.30972938	     -6.31282754	      2.63558473	      3.66901513	     -2.70684648	      0.35206913	      0.00614477	      7.54590053	     -0.66990039	     -6.31282754	      5.20204822	     -1.50866082	     -2.48275173	     -2.93981912	     -5.59351885	      8.22745394	     30.97106509	     80.78347636	      0.16064513	    -10.03381459	     26.37552232	     26.57889372	     71.61425155
      0.05000000	     -4.24682872	     -2.05795790	     17.72933378	     -0.39113769	      1.15826224	      0.05231223	      2.65607654	     -0.81211277	     -1.56191709	      0.49927512	      0.00871399	     10.81283052	     -1.07851117	     -6.54284907	      2.73653824	      3.84593972	     -4.87322572	      0.29159450	      0.00508928	      8.08231810	      1.38965123	     -6.54284907	      5.26730494	     -1.76422466	     -1.94523930	     -3.69682734	     -5.00815283	      5.16384052	     32.04542318	     82.04759423	      0.30964737	     -9.95477229	     24.73685374	     26.85833837	     73.26701797
      0.06666670	     -4.25201567	     -2.00252683	     17.62467807	     -0.39204433	      1.16225423	      0.05232340	      2.61754469	     -0.85841290	     -1.95615697	      0.43576998	      0.00760562	     10.92067412	     -0.59623185	     -6.70368554	      2.58113547	      3.86755460	     -5.38418305	      0.26734466	      0.00466604	      7.84136560	      1.91533123	     -6.70368554	      5.08171295	     -1.74171602	     -1.80476037	     -3.72199648	     -4.87826733	      4.27175865	     32.49925608	     81.21852207	      0.21702487	     -9.84378728	     23.60399346	     27.15490916	     72.85636021
      0.08333330	     -4.42492149	     -2.04788956	     17.41236056	     -0.39136782	      1.16578549	      0.05226260	      2.77826386	     -0.79438579	     -1.88907091	      0.40081545	      0.00699555	     10.68571939	     -0.32124145	     -7.00023475	      2.60242470	      3.82071319	     -6.27843408	      0.25538775	      0.00445736	      7.48189430	      2.56188718	     -7.00023475	      5.01880630	     -1.59684085	     -1.83030781	     -3.95705306	     -4.29329175	      1.05154552	     32.88317120	     88.74237480	     -0.37473316	     -9.16921292	     17.74223350	     28.24953712	     80.40591343
      0.10000000	     -4.53538418	     -2.07580992	     17.40965459	     -0.39179374	      1.16502079	      0.05233689	      2.86823669	     -0.77514717	     -2.00629599	      0.36767252	      0.00641710	     10.45254475	     -0.15028817	     -7.07181332	      2.69761777	      3.81958403	     -6.91214082	      0.24728298	      0.00431590	      7.29631112	      2.76577361	     -7.07181332	      4.91962701	     -1.53973222	     -1.57929669	     -3.93100562	     -4.12728740	      1.03166658	     32.52752131	     86.93949230	     -0.25848606	     -8.86660796	     17.32624244	     28.26853611	     79.22285046
      0.11666670	     -4.48348125	     -2.04887283	     17.46176194	     -0.39105983	      1.15935731	      0.05270100	      2.74784272	     -0.71338500	     -1.97871607	      0.35453699	      0.00618784	     10.25287453	      0.14560486	     -7.11456834	      2.59561462	      3.84128256	     -7.16413870	      0.24017245	      0.00419180	      7.03867171	      3.08326530	     -7.11456834	      4.63606705	     -1.56069679	     -1.40410707	     -3.85667275	     -3.98174367	      1.17307704	     32.34882449	     85.98786194	     -0.20784473	     -8.72846010	     16.85762175	     28.54133879	     78.60002365
